<svg width="181" height="33" viewBox="0 0 181 33" fill="none" xmlns="http://www.w3.org/2000/svg">
<g clip-path="url(#clip0_29_1855)">
<path d="M24.199 16.1991C21.9602 15.9928 19.6714 16.1303 17.4326 16.6557C16.3132 16.9308 15.2188 17.306 14.1557 17.7751C13.0925 18.2441 12.0857 18.8382 11.1101 19.4886C9.22151 20.8143 7.55179 22.4591 6.13846 24.2851H9.67803C10.4973 23.1782 11.4228 22.1526 12.4609 21.2333C13.2551 20.5642 14.0931 19.9326 14.9999 19.4073C15.9067 18.882 16.8635 18.4254 17.8578 18.0565C19.859 17.3436 22.004 16.9683 24.1803 16.9246C26.3503 16.887 28.5578 17.1247 30.6841 17.7375C28.6391 16.8933 26.4379 16.4055 24.2053 16.1866" fill="#EE691E"/>
<path d="M9.27781 19.2321L16.1381 7.56276L20.4343 14.8795C19.49 14.9546 18.552 15.0859 17.6327 15.2798L16.1318 12.7283L13.9493 16.443C13.843 16.4867 13.7304 16.5305 13.6241 16.5805C12.6048 17.0308 11.5416 17.6249 10.3534 18.4191C9.99072 18.6755 9.62801 18.9507 9.27781 19.2258M16.1318 30.2511C8.7525 30.2511 2.74898 24.2475 2.74898 16.8682C2.74898 9.48889 8.75875 3.49162 16.1381 3.49162C21.6601 3.49162 26.4128 6.85609 28.4515 11.6401H31.2594C29.0894 5.37398 23.1359 0.871338 16.1381 0.871338C7.30165 0.871338 0.134949 8.03804 0.134949 16.8745C0.134949 25.7109 7.30165 32.8776 16.1381 32.8776C19.2336 32.8776 22.1228 31.9958 24.568 30.4762L23.2422 28.2124C21.1785 29.5069 18.7459 30.2636 16.1381 30.2636M28.4766 22.0462C27.9825 23.2157 27.3259 24.3101 26.5379 25.2856L21.7539 17.1371C20.8346 17.2622 19.934 17.4561 19.0523 17.7062L24.6368 27.218L25.9751 29.5006C28.4015 27.6058 30.2589 25.0292 31.2782 22.0525H28.4766V22.0462Z" fill="#680FD2"/>
<path d="M58.7724 24.1913C57.6593 24.1913 56.6149 23.9724 55.6393 23.5221C54.6638 23.0781 53.807 22.4715 53.0753 21.7086C52.3437 20.9456 51.7683 20.0513 51.3493 19.0257C50.9303 18.0001 50.7177 16.8995 50.7177 15.7238C50.7177 14.5481 50.9303 13.4662 51.3493 12.4344C51.7683 11.4025 52.3437 10.502 53.0753 9.73905C53.807 8.97611 54.6575 8.37575 55.6393 7.92549C56.6149 7.48148 57.6593 7.25635 58.7724 7.25635C59.8856 7.25635 60.9925 7.49399 61.9993 7.96927C63.0062 8.44454 63.8879 9.10118 64.6321 9.92666L63.2 11.1899C62.6435 10.552 61.9806 10.058 61.2114 9.70153C60.4422 9.34507 59.6229 9.16372 58.7662 9.16372C57.9094 9.16372 57.1277 9.33256 56.3835 9.67652C55.6393 10.0205 54.9827 10.4895 54.4324 11.0836C53.8758 11.6777 53.4318 12.3718 53.1066 13.1723C52.7814 13.9665 52.6188 14.817 52.6188 15.7238C52.6188 16.6306 52.7814 17.4811 53.1066 18.2753C53.4318 19.0695 53.8758 19.7637 54.4324 20.364C54.989 20.9581 55.6393 21.4272 56.3835 21.7711C57.1277 22.1151 57.9282 22.2839 58.7662 22.2839C59.6042 22.2839 60.4359 22.1025 61.2114 21.7461C61.9806 21.3896 62.6435 20.8893 63.2 20.2577L64.6321 21.521C63.8817 22.3464 63.0062 22.9968 61.9993 23.4784C60.9925 23.9599 59.9106 24.1913 58.7724 24.1913Z" fill="white" fill-opacity="0.8"/>
<path d="M70.498 24.0725C70.0353 24.0725 69.5975 23.9912 69.1848 23.8223C68.772 23.6535 68.4156 23.4283 68.1091 23.1407C67.809 22.853 67.5713 22.5153 67.3962 22.1276C67.2211 21.7399 67.1336 21.3209 67.1336 20.8768V7.3877H69.0409V20.8768C69.0409 21.2396 69.1785 21.546 69.4599 21.7961C69.7351 22.04 70.0853 22.1651 70.498 22.1651C70.6731 22.1651 70.8608 22.1276 71.0671 22.0463L71.78 23.8348C71.5737 23.9161 71.3611 23.9724 71.1484 24.0162C70.9358 24.0537 70.7169 24.0725 70.4918 24.0725" fill="white" fill-opacity="0.8"/>
<path d="M78.1525 11.8403C78.9655 11.8403 79.7285 12.0029 80.4414 12.3281C81.1543 12.6533 81.7797 13.0973 82.3112 13.6539C82.8428 14.2105 83.268 14.8609 83.5745 15.605C83.8809 16.3492 84.0372 17.1559 84.0372 18.0127C84.0372 18.8695 83.8809 19.6762 83.5745 20.4204C83.2618 21.1708 82.8428 21.8212 82.3112 22.3778C81.7797 22.9343 81.1543 23.3721 80.4414 23.7035C79.7285 24.0287 78.9655 24.1913 78.1525 24.1913C77.3396 24.1913 76.5766 24.0287 75.8637 23.7035C75.1508 23.3783 74.5254 22.9343 73.9939 22.3778C73.4623 21.8212 73.0433 21.1708 72.7306 20.4204C72.4242 19.6762 72.2679 18.8695 72.2679 18.0127C72.2679 17.1559 72.4242 16.3492 72.7306 15.605C73.0433 14.8609 73.4623 14.2105 73.9939 13.6539C74.5254 13.0973 75.1508 12.6596 75.8637 12.3281C76.5766 12.0029 77.3396 11.8403 78.1525 11.8403ZM78.1525 22.2777C78.6904 22.2777 79.2032 22.1651 79.6909 21.9463C80.1725 21.7211 80.604 21.4147 80.9667 21.027C81.3294 20.6392 81.6171 20.1827 81.8235 19.6699C82.0298 19.1571 82.1361 18.6005 82.1361 18.0127C82.1361 17.4249 82.0298 16.8745 81.8235 16.3555C81.6171 15.8364 81.3294 15.3862 80.9667 14.9984C80.604 14.6107 80.1787 14.3043 79.6909 14.0791C79.2094 13.854 78.6904 13.7477 78.1525 13.7477C77.6147 13.7477 77.0769 13.8603 76.6016 14.0791C76.1264 14.3043 75.7011 14.6045 75.3384 14.9984C74.9694 15.3862 74.688 15.8427 74.4817 16.3555C74.2753 16.8745 74.169 17.4249 74.169 18.0127C74.169 18.6005 74.2753 19.1509 74.4817 19.6699C74.688 20.189 74.9757 20.6392 75.3384 21.027C75.7011 21.4147 76.1264 21.7211 76.6016 21.9463C77.0769 22.1651 77.596 22.2777 78.1525 22.2777Z" fill="white" fill-opacity="0.8"/>
<path d="M94.1682 12.5593H96.0755V19.6635C96.0755 20.3014 95.9442 20.8955 95.6815 21.452C95.4189 22.0086 95.0624 22.4901 94.6184 22.8966C94.1744 23.3031 93.6554 23.6221 93.0675 23.8534C92.4797 24.0848 91.8543 24.1974 91.1852 24.1974C90.516 24.1974 89.8844 24.0786 89.2903 23.8409C88.6962 23.6033 88.1772 23.2844 87.7269 22.8779C87.2829 22.4714 86.9327 21.9899 86.6763 21.4395C86.4199 20.883 86.2948 20.2951 86.2948 19.676V12.5718H88.2022V19.676C88.2022 20.0387 88.2835 20.3827 88.4398 20.7016C88.5961 21.0205 88.815 21.2957 89.0839 21.5333C89.3528 21.771 89.6655 21.9586 90.0282 22.0962C90.3847 22.2337 90.7724 22.2963 91.1852 22.2963C91.5979 22.2963 91.9856 22.2275 92.3546 22.0837C92.7173 21.9398 93.0362 21.7522 93.3052 21.5146C93.5741 21.2769 93.7867 20.9955 93.9368 20.6828C94.0869 20.3639 94.1619 20.0325 94.1619 19.6822V12.5781L94.1682 12.5593Z" fill="white" fill-opacity="0.8"/>
<path d="M104.23 24.1913C103.417 24.1913 102.654 24.0287 101.941 23.7035C101.229 23.3783 100.603 22.9343 100.072 22.384C99.5401 21.8274 99.1211 21.177 98.8084 20.4266C98.502 19.6824 98.3456 18.8757 98.3456 18.0189C98.3456 17.1622 98.502 16.3617 98.8084 15.6113C99.1211 14.8608 99.5401 14.2104 100.072 13.6601C100.603 13.1035 101.229 12.6658 101.941 12.3343C102.654 12.0092 103.417 11.8466 104.23 11.8466C104.993 11.8466 105.719 11.9904 106.4 12.2781C107.082 12.5657 107.689 12.9597 108.214 13.4725V7.3877H110.121V24.0725H108.214V22.5716C107.689 23.0781 107.082 23.4784 106.4 23.766C105.719 24.0537 104.993 24.1913 104.23 24.1913ZM104.23 13.7477C103.674 13.7477 103.155 13.8602 102.679 14.0791C102.204 14.3042 101.779 14.6107 101.416 14.9984C101.053 15.3861 100.766 15.8427 100.559 16.3555C100.353 16.8745 100.247 17.4248 100.247 18.0127C100.247 18.6005 100.353 19.1508 100.559 19.6699C100.766 20.1889 101.053 20.6392 101.416 21.0269C101.779 21.4147 102.204 21.7211 102.679 21.9462C103.155 22.1714 103.674 22.2777 104.23 22.2777C104.787 22.2777 105.281 22.1651 105.769 21.9462C106.25 21.7211 106.682 21.4209 107.044 21.0269C107.407 20.6392 107.695 20.1827 107.901 19.6699C108.108 19.1508 108.214 18.6005 108.214 18.0127C108.214 17.4248 108.108 16.8745 107.901 16.3555C107.695 15.8364 107.407 15.3861 107.044 14.9984C106.682 14.6107 106.25 14.3042 105.769 14.0791C105.287 13.8602 104.768 13.7477 104.23 13.7477Z" fill="white" fill-opacity="0.8"/>
<path d="M115.293 20.4954L113.936 24.0725H111.91L118.176 7.3877H120.202L126.468 24.0725H124.442L123.085 20.4954H115.293ZM119.202 10.1018L116.006 18.588H122.372L119.202 10.1018Z" fill="white" fill-opacity="0.8"/>
<path d="M133.147 11.8403C133.816 11.8403 134.448 11.9592 135.042 12.1968C135.636 12.4344 136.155 12.7596 136.606 13.1599C137.05 13.5663 137.4 14.0479 137.656 14.6045C137.913 15.161 138.038 15.7489 138.038 16.368V24.0662H136.13V16.368C136.13 16.0053 136.049 15.6613 135.893 15.3424C135.736 15.0234 135.517 14.7483 135.249 14.5106C134.98 14.273 134.667 14.0854 134.31 13.9478C133.954 13.8102 133.566 13.7477 133.154 13.7477C132.741 13.7477 132.353 13.8165 131.997 13.9478C131.64 14.0854 131.327 14.273 131.059 14.5106C130.79 14.7483 130.571 15.0297 130.414 15.3424C130.258 15.6613 130.177 15.999 130.177 16.368V24.0662H128.269V12.5595H130.177V12.7721C130.59 12.472 131.052 12.2406 131.559 12.0842C132.065 11.9279 132.597 11.8466 133.154 11.8466" fill="white" fill-opacity="0.8"/>
<path d="M142.515 21.1396C141.846 20.6768 141.308 20.089 140.908 19.3635C140.502 18.6381 140.301 17.8502 140.301 16.9934C140.301 16.2805 140.445 15.6113 140.733 14.9922C141.021 14.3731 141.402 13.829 141.89 13.36C142.371 12.891 142.947 12.522 143.603 12.2531C144.26 11.9842 144.967 11.8466 145.711 11.8466C146.793 11.8466 147.775 12.1281 148.669 12.6784L149.738 11.584L151.095 12.941L150.07 13.9666C150.751 14.8421 151.095 15.849 151.095 16.9934C151.095 17.8502 150.895 18.6444 150.501 19.3635C150.101 20.089 149.563 20.6768 148.881 21.1396C149.551 21.5836 150.088 22.1402 150.489 22.8093C150.895 23.4785 151.095 24.2164 151.095 25.0231C151.095 25.6735 150.958 26.2926 150.676 26.8804C150.401 27.4683 150.02 27.9811 149.532 28.4188C149.044 28.8566 148.475 29.2006 147.818 29.457C147.162 29.7134 146.455 29.8384 145.711 29.8384C144.967 29.8384 144.241 29.7134 143.591 29.457C142.94 29.2006 142.365 28.8566 141.877 28.4188C141.383 27.9811 141.002 27.4745 140.72 26.893C140.445 26.3114 140.301 25.6923 140.301 25.0231H142.209C142.209 25.4046 142.303 25.7735 142.484 26.13C142.665 26.4865 142.915 26.7991 143.222 27.0618C143.528 27.3245 143.904 27.5371 144.329 27.6934C144.76 27.8498 145.217 27.9311 145.711 27.9311C146.205 27.9311 146.661 27.8498 147.08 27.6934C147.499 27.5371 147.868 27.3245 148.175 27.0618C148.487 26.7991 148.731 26.4865 148.913 26.13C149.094 25.7735 149.188 25.4046 149.188 25.0231C149.188 24.6416 149.094 24.2789 148.913 23.9287C148.731 23.5785 148.481 23.2721 148.175 23.0094C147.868 22.7468 147.499 22.5404 147.08 22.3778C146.661 22.2215 146.205 22.1402 145.711 22.1402C145.217 22.1402 144.723 22.2215 144.279 22.3778C143.835 22.5342 143.447 22.778 143.109 23.0907L141.821 21.6837C142.046 21.4773 142.271 21.2959 142.515 21.1333M145.711 13.7415C145.236 13.7415 144.779 13.8228 144.354 13.9916C143.922 14.1605 143.553 14.3919 143.234 14.6858C142.915 14.9797 142.665 15.3237 142.484 15.7239C142.303 16.1241 142.209 16.5431 142.209 16.9872C142.209 17.4312 142.303 17.8502 142.484 18.2504C142.665 18.6506 142.915 18.9946 143.234 19.2885C143.553 19.5824 143.929 19.8138 144.354 19.9827C144.785 20.1515 145.236 20.2328 145.711 20.2328C146.186 20.2328 146.643 20.1515 147.068 19.9827C147.499 19.8138 147.868 19.5824 148.175 19.2885C148.487 18.9946 148.731 18.6506 148.913 18.2504C149.094 17.8502 149.188 17.4312 149.188 16.9872C149.188 16.5431 149.094 16.0991 148.9 15.6989C148.713 15.2987 148.456 14.961 148.137 14.6733C147.818 14.3856 147.449 14.1605 147.03 13.9916C146.611 13.8228 146.167 13.7415 145.711 13.7415Z" fill="white" fill-opacity="0.8"/>
<path d="M156.649 24.0725C156.186 24.0725 155.748 23.9912 155.335 23.8223C154.923 23.6535 154.566 23.4283 154.26 23.1407C153.959 22.853 153.722 22.5153 153.547 22.1276C153.372 21.7399 153.284 21.3209 153.284 20.8768V7.3877H155.191V20.8768C155.191 21.2396 155.329 21.546 155.61 21.7961C155.886 22.04 156.236 22.1651 156.649 22.1651C156.824 22.1651 157.011 22.1276 157.218 22.0463L157.931 23.8348C157.724 23.9161 157.512 23.9724 157.299 24.0162C157.086 24.0537 156.867 24.0725 156.642 24.0725" fill="white" fill-opacity="0.8"/>
<path d="M164.297 24.1912C163.484 24.1912 162.721 24.0286 162.008 23.7034C161.295 23.3782 160.67 22.9342 160.138 22.3839C159.607 21.8273 159.188 21.1769 158.875 20.4265C158.568 19.6823 158.412 18.8756 158.412 18.0188C158.412 17.1621 158.568 16.3616 158.875 15.6111C159.188 14.8607 159.607 14.2103 160.138 13.66C160.67 13.1034 161.295 12.6657 162.008 12.3342C162.721 12.009 163.484 11.8464 164.297 11.8464C165.11 11.8464 165.873 12.009 166.586 12.3342C167.299 12.6594 167.924 13.1034 168.455 13.66C168.987 14.2166 169.412 14.867 169.719 15.6111C170.025 16.3553 170.181 17.1621 170.181 18.0188H160.313C160.313 18.6066 160.419 19.157 160.626 19.676C160.832 20.1951 161.12 20.6453 161.483 21.0331C161.845 21.4208 162.271 21.7272 162.746 21.9524C163.221 22.1775 163.74 22.2838 164.297 22.2838C164.853 22.2838 165.379 22.1712 165.873 21.9398C166.367 21.7085 166.804 21.3895 167.186 20.9768L168.593 22.24C168.036 22.8591 167.392 23.3407 166.661 23.6846C165.929 24.0286 165.141 24.1974 164.303 24.1974M164.303 13.7538C163.521 13.7538 162.815 13.9664 162.183 14.3979C161.545 14.8294 161.07 15.3985 160.751 16.1114H167.88C167.549 15.3985 167.061 14.8232 166.423 14.3979C165.785 13.9664 165.078 13.7538 164.303 13.7538Z" fill="white" fill-opacity="0.8"/>
<path d="M180.106 20.6643C180.106 21.1583 179.987 21.6148 179.75 22.0463C179.512 22.4716 179.193 22.8468 178.786 23.1657C178.38 23.4847 177.905 23.7348 177.354 23.9162C176.804 24.0975 176.222 24.1913 175.603 24.1913C175.172 24.1913 174.747 24.1413 174.315 24.0475C173.884 23.9537 173.483 23.8036 173.114 23.6035C172.739 23.4034 172.402 23.1657 172.101 22.878C171.801 22.5904 171.557 22.2589 171.388 21.8775L173.127 21.0895C173.252 21.3772 173.533 21.6461 173.959 21.8962C174.39 22.1526 174.934 22.2777 175.603 22.2777C175.966 22.2777 176.31 22.2339 176.629 22.1464C176.948 22.0588 177.223 21.94 177.454 21.7899C177.686 21.6398 177.867 21.4647 178.005 21.2646C178.136 21.0645 178.205 20.8644 178.205 20.658C178.205 20.1827 177.942 19.7887 177.417 19.4761C176.892 19.1634 176.185 18.8319 175.297 18.463C174.884 18.2879 174.471 18.1128 174.059 17.9377C173.646 17.7626 173.265 17.5562 172.914 17.3185C171.989 16.6994 171.532 15.9115 171.532 14.9609C171.532 14.5169 171.639 14.1042 171.851 13.7227C172.064 13.3412 172.358 13.0098 172.72 12.7346C173.083 12.4594 173.521 12.2406 174.021 12.078C174.522 11.9216 175.047 11.8403 175.61 11.8403C176.466 11.8403 177.242 12.0217 177.936 12.3781C178.63 12.7346 179.124 13.2161 179.424 13.8227L177.73 14.6795C177.605 14.4419 177.354 14.223 176.992 14.0354C176.623 13.8478 176.166 13.7477 175.61 13.7477C174.991 13.7477 174.471 13.879 174.059 14.1417C173.646 14.4043 173.44 14.6795 173.44 14.9672C173.44 15.2986 173.677 15.5988 174.14 15.8614C174.609 16.1241 175.222 16.4055 175.985 16.7057C176.448 16.8808 176.904 17.0684 177.354 17.281C177.811 17.4874 178.224 17.725 178.605 17.9939C179.606 18.7069 180.106 19.6011 180.106 20.6643Z" fill="white" fill-opacity="0.8"/>
</g>
<defs>
<clipPath id="clip0_29_1855">
<rect width="181" height="33" fill="white"/>
</clipPath>
</defs>
</svg>
