<svg width="79" height="15" viewBox="0 0 79 15" fill="none" xmlns="http://www.w3.org/2000/svg">
<path d="M10.36 4.82227L14.2701 5.39648C14.5983 5.45117 14.8717 5.66992 14.9811 5.99805C15.0905 6.29883 15.0084 6.6543 14.7623 6.87305L11.9186 9.68945L12.6022 13.6816C12.6569 14.0098 12.5201 14.3379 12.2467 14.5293C11.9733 14.748 11.6178 14.748 11.317 14.6113L7.81702 12.7246L4.28967 14.6113C4.01624 14.748 3.63342 14.748 3.38733 14.5293C3.11389 14.3379 2.97717 14.0098 3.03186 13.6816L3.68811 9.68945L0.84436 6.87305C0.598267 6.6543 0.516235 6.29883 0.62561 5.99805C0.734985 5.66992 1.00842 5.45117 1.33655 5.39648L5.27405 4.82227L7.02405 1.18555C7.16077 0.884766 7.46155 0.693359 7.81702 0.693359C8.14514 0.693359 8.44592 0.884766 8.58264 1.18555L10.36 4.82227ZM26.11 4.82227L30.0201 5.39648C30.3483 5.45117 30.6217 5.66992 30.7311 5.99805C30.8405 6.29883 30.7584 6.6543 30.5123 6.87305L27.6686 9.68945L28.3522 13.6816C28.4069 14.0098 28.2701 14.3379 27.9967 14.5293C27.7233 14.748 27.3678 14.748 27.067 14.6113L23.567 12.7246L20.0397 14.6113C19.7662 14.748 19.3834 14.748 19.1373 14.5293C18.8639 14.3379 18.7272 14.0098 18.7819 13.6816L19.4381 9.68945L16.5944 6.87305C16.3483 6.6543 16.2662 6.29883 16.3756 5.99805C16.485 5.66992 16.7584 5.45117 17.0865 5.39648L21.024 4.82227L22.774 1.18555C22.9108 0.884766 23.2115 0.693359 23.567 0.693359C23.8951 0.693359 24.1959 0.884766 24.3326 1.18555L26.11 4.82227ZM41.86 4.82227L45.7701 5.39648C46.0983 5.45117 46.3717 5.66992 46.4811 5.99805C46.5905 6.29883 46.5084 6.6543 46.2623 6.87305L43.4186 9.68945L44.1022 13.6816C44.1569 14.0098 44.0201 14.3379 43.7467 14.5293C43.4733 14.748 43.1178 14.748 42.817 14.6113L39.317 12.7246L35.7897 14.6113C35.5162 14.748 35.1334 14.748 34.8873 14.5293C34.6139 14.3379 34.4772 14.0098 34.5319 13.6816L35.1881 9.68945L32.3444 6.87305C32.0983 6.6543 32.0162 6.29883 32.1256 5.99805C32.235 5.66992 32.5084 5.45117 32.8365 5.39648L36.774 4.82227L38.524 1.18555C38.6608 0.884766 38.9615 0.693359 39.317 0.693359C39.6451 0.693359 39.9459 0.884766 40.0826 1.18555L41.86 4.82227ZM57.61 4.82227L61.5201 5.39648C61.8483 5.45117 62.1217 5.66992 62.2311 5.99805C62.3405 6.29883 62.2584 6.6543 62.0123 6.87305L59.1686 9.68945L59.8522 13.6816C59.9069 14.0098 59.7701 14.3379 59.4967 14.5293C59.2233 14.748 58.8678 14.748 58.567 14.6113L55.067 12.7246L51.5397 14.6113C51.2662 14.748 50.8834 14.748 50.6373 14.5293C50.3639 14.3379 50.2272 14.0098 50.2819 13.6816L50.9381 9.68945L48.0944 6.87305C47.8483 6.6543 47.7662 6.29883 47.8756 5.99805C47.985 5.66992 48.2584 5.45117 48.5865 5.39648L52.524 4.82227L54.274 1.18555C54.4108 0.884766 54.7115 0.693359 55.067 0.693359C55.3951 0.693359 55.6959 0.884766 55.8326 1.18555L57.61 4.82227ZM73.36 4.82227L77.2701 5.39648C77.5983 5.45117 77.8717 5.66992 77.9811 5.99805C78.0905 6.29883 78.0084 6.6543 77.7623 6.87305L74.9186 9.68945L75.6022 13.6816C75.6569 14.0098 75.5201 14.3379 75.2467 14.5293C74.9733 14.748 74.6178 14.748 74.317 14.6113L70.817 12.7246L67.2897 14.6113C67.0162 14.748 66.6334 14.748 66.3873 14.5293C66.1139 14.3379 65.9772 14.0098 66.0319 13.6816L66.6881 9.68945L63.8444 6.87305C63.5983 6.6543 63.5162 6.29883 63.6256 5.99805C63.735 5.66992 64.0084 5.45117 64.3365 5.39648L68.274 4.82227L70.024 1.18555C70.1608 0.884766 70.4615 0.693359 70.817 0.693359C71.1451 0.693359 71.4459 0.884766 71.5826 1.18555L73.36 4.82227Z" fill="#EE691E"/>
</svg>
